<svg width="39" height="35" viewBox="0 0 39 35" fill="none" xmlns="http://www.w3.org/2000/svg">
<rect width="39" height="35" fill="#1E1E1E"/>
<g clip-path="url(#clip0_0_1)">
<rect width="1440" height="1080" transform="translate(-50 -21)" fill="#373737"/>
<path fill-rule="evenodd" clip-rule="evenodd" d="M20.1686 0.0397466C19.2331 0.194231 18.2309 0.56692 17.4318 1.05742C16.6182 1.55677 15.736 2.45982 15.3102 3.22891C15.2132 3.40414 15.1263 3.55558 15.1171 3.56542C15.1079 3.57526 14.9038 3.52231 14.6634 3.44782C11.4593 2.45451 7.85007 4.18407 7.01241 7.11418C6.85998 7.64723 6.81032 7.68596 6.27446 7.68879C5.76483 7.69155 4.66866 7.97517 3.94454 8.29179C1.40915 9.40016 -0.143994 11.7618 0.0105589 14.2736C0.180512 17.0352 2.11804 19.2473 5.07371 20.0546C5.71745 20.2304 5.88913 20.2452 7.63534 20.2748L9.50702 20.3065L9.4818 21.3433C9.45398 22.4897 9.37737 22.7301 8.90405 23.1567C8.41823 23.5944 8.17937 23.6518 6.73497 23.6779L5.4276 23.7017L5.22032 23.2936C4.92128 22.7051 4.54994 22.334 3.9828 22.0569C3.51522 21.8284 3.44002 21.8138 2.73868 21.8138C2.09706 21.8138 1.93158 21.8397 1.56009 21.9984C-0.0823926 22.7003 -0.516271 24.641 0.700977 25.841C1.2887 26.4204 1.80123 26.6216 2.6994 26.6252C3.31808 26.6277 3.46249 26.6032 3.85363 26.4303C4.41566 26.1816 5.04377 25.5757 5.23054 25.1019L5.36843 24.752H6.59071C7.88221 24.752 8.42971 24.6714 9.03778 24.3919C9.5342 24.1637 10.1032 23.6047 10.3837 23.0698C10.6276 22.6047 10.6347 22.5634 10.6623 21.4421L10.6907 20.2916H12.4898H14.2889L14.2884 24.1325C14.2882 26.4906 14.2574 28.0724 14.209 28.2299C14.1034 28.572 13.5815 29.0947 13.1632 29.2772C12.8551 29.4116 12.6854 29.4247 11.2575 29.4247H9.68993L9.54465 29.0561C9.44172 28.795 9.25865 28.5607 8.91725 28.2533C8.31868 27.7143 7.85314 27.5478 6.96613 27.5556C6.45258 27.56 6.28491 27.5947 5.85488 27.7855C5.26197 28.0485 4.84435 28.4369 4.55819 28.9915C4.38753 29.3222 4.3528 29.4909 4.3528 29.9911C4.3528 30.4933 4.3873 30.6597 4.56094 30.9962C4.81607 31.4908 5.31964 31.9565 5.84231 32.1813C6.36937 32.408 7.352 32.4642 7.89565 32.2988C8.64704 32.0701 9.35364 31.4456 9.60633 30.7867L9.70785 30.5221L11.4287 30.4867L13.1496 30.4513L13.6605 30.2331C14.315 29.9536 14.8758 29.4483 15.186 28.8586L15.4282 28.3982L15.4503 24.3449L15.4724 20.2916H17.2378H19.0032V25.2476C19.0032 29.6534 18.9899 30.2035 18.8828 30.2035C18.6563 30.2035 17.9768 30.5621 17.6568 30.8504C17.481 31.0088 17.2435 31.3184 17.1291 31.5383C16.9524 31.878 16.9211 32.0341 16.9211 32.5753C16.9211 33.1295 16.9497 33.265 17.1406 33.6154C17.9815 35.1583 20.2621 35.479 21.5527 34.2358C22.11 33.699 22.2631 33.3412 22.2636 32.5753C22.2639 32.0234 22.2352 31.8852 22.0483 31.5424C21.7622 31.0176 21.2739 30.5869 20.6729 30.3296L20.1818 30.1194V25.2055V20.2916H21.8711H23.5605V24.0999C23.5605 28.1669 23.5737 28.3295 23.9616 29.0145C24.2033 29.4415 24.8652 30.0042 25.4069 30.2433L25.8784 30.4513L27.6266 30.4739C28.7149 30.4879 29.3748 30.523 29.3748 30.5668C29.3748 30.7493 29.8055 31.4252 30.0902 31.6895C30.265 31.8518 30.6263 32.0776 30.8932 32.1914C31.5215 32.4592 32.3485 32.4799 33.0446 32.2452C33.6716 32.0339 34.3149 31.4507 34.5554 30.8756C34.801 30.2884 34.761 29.4122 34.4649 28.8938C34.0585 28.1821 33.358 27.7212 32.4526 27.5694C31.2534 27.3684 29.8573 28.1235 29.4475 29.1947L29.3594 29.4247H27.8112C26.3045 29.4247 26.2518 29.4199 25.8562 29.2422C25.6326 29.1418 25.339 28.9338 25.2038 28.78C24.7437 28.2565 24.739 28.2093 24.739 24.0668V20.289L26.5659 20.308L27.4793 20.3175L28.9545 20.289L28.3654 21.2121C28.3654 21.2121 28.3648 21.5106 28.3654 21.5269C28.4044 22.6251 28.4802 22.6834 28.7285 23.1375C29.1436 23.8969 29.9717 24.4888 30.8841 24.6784C31.0696 24.717 31.7717 24.7493 32.4444 24.7503L33.6674 24.752L33.8392 25.1254C34.7463 27.0975 37.7718 27.1749 38.8228 25.253C38.9669 24.9894 39 24.81 39 24.2918C39 23.731 38.9725 23.6041 38.7706 23.2336C38.4785 22.6975 37.9747 22.2436 37.4047 22.0028C37.0236 21.8418 36.8521 21.8138 36.25 21.8138C35.6523 21.8138 35.4759 21.8422 35.1106 21.9974C34.5394 22.2402 34.0399 22.7021 33.7523 23.2533L33.5184 23.7016L32.2127 23.6781C30.9406 23.6552 30.8964 23.6493 30.4942 23.4485C29.6811 23.0425 29.4607 22.5981 29.4536 21.3115C29.4535 21.2897 29.4536 21.2344 29.4536 21.2121H28.3654L29.9648 20.2737H31.5552C33.4208 20.2457 33.7216 20.2249 34.2318 20.0884C36.6084 19.4523 38.2897 17.821 38.77 15.685C38.9395 14.9314 38.8875 13.756 38.6519 13.0162C37.9036 10.666 35.7806 9.04049 33.1856 8.83107L32.6356 8.78668L32.5837 8.11408C32.4679 6.61526 31.6584 5.22588 30.373 4.31965C29.5171 3.71608 28.2403 3.23394 27.4878 3.22997C27.3319 3.22913 27.2343 3.14487 27.0264 2.83166C26.6856 2.31822 25.8531 1.52512 25.2517 1.14089C24.0936 0.400966 22.9116 0.0452689 21.4783 0.0054088C20.9597 -0.00903431 20.3703 0.00647076 20.1686 0.0397466ZM22.4472 1.21268C23.92 1.52555 25.3268 2.48396 26.0811 3.68833C26.2087 3.89202 26.3744 4.10619 26.4493 4.16432C26.5242 4.22237 26.8714 4.305 27.2208 4.34783C28.0475 4.44921 28.6196 4.64731 29.3404 5.08174C30.7373 5.92354 31.5046 7.38159 31.3772 8.95164C31.3265 9.57539 31.3335 9.62169 31.5022 9.78354C31.6669 9.94149 31.7396 9.95494 32.4332 9.95593C33.3524 9.95721 34.0215 10.0919 34.7964 10.4316C35.5925 10.7807 36.6785 11.7471 37.1009 12.4824C37.8983 13.8707 37.8985 15.4533 37.1014 16.8437C36.69 17.5616 35.6742 18.4647 34.8749 18.8232C33.6385 19.3777 34.8656 19.3358 19.8675 19.3358H6.47089L5.80412 19.1757C3.98846 18.7397 2.56339 17.6976 1.76485 16.2219C1.33718 15.4316 1.21288 14.9222 1.21162 13.955C1.20989 12.654 1.58484 11.6699 2.45456 10.6927C3.56047 9.44993 5.02169 8.77783 6.78518 8.70066C7.37133 8.67503 7.69097 8.63028 7.77826 8.56161C7.85762 8.49923 7.92723 8.2908 7.95953 8.01935C8.30045 5.15084 11.8584 3.39218 14.6988 4.68823C15.1391 4.88916 15.5527 4.9075 15.7177 4.7334C15.7823 4.66522 15.9124 4.43343 16.0069 4.21819C16.6545 2.74287 18.2979 1.52484 20.1425 1.153C20.5223 1.07646 21.9842 1.11434 22.4472 1.21268ZM20.2812 2.77169C19.6136 2.93368 19.0789 3.21836 18.5539 3.69152C18.0416 4.15313 17.5891 4.86898 17.589 5.21803C17.5889 5.46625 17.8179 5.6361 18.1526 5.6361C18.4736 5.6361 18.5874 5.53868 18.8791 5.01419C19.1439 4.53814 19.6034 4.13628 20.1693 3.88586C20.7653 3.62213 21.7428 3.60486 22.3292 3.84763C22.8775 4.07468 23.2931 4.39519 23.6252 4.84753C23.966 5.31155 24.245 5.44027 24.562 5.27976C24.8943 5.11147 24.9194 4.85086 24.6498 4.36489C23.9464 3.09645 21.9472 2.36735 20.2812 2.77169ZM11.9542 5.94712C10.8572 6.26947 10.0759 7.08211 9.90059 8.08279C9.81683 8.56097 9.87678 8.72374 10.174 8.82562C10.5779 8.96396 10.9869 8.71496 10.9905 8.32839C10.993 8.0745 11.2413 7.61856 11.5079 7.37826C12.0181 6.91856 12.8349 6.78489 13.4921 7.05365C13.6805 7.13068 13.9031 7.19369 13.9868 7.19369C14.201 7.19369 14.5246 6.87955 14.5246 6.67168C14.5246 6.37319 14.4395 6.2728 14.0237 6.08044C13.5345 5.85423 12.4977 5.7874 11.9542 5.94712ZM26.4538 6.03604C26.0584 6.43139 26.262 6.79877 26.9391 6.91162C27.9387 7.07828 28.5105 7.69566 28.5105 8.60819C28.5105 8.98456 28.5452 9.12588 28.6734 9.27272C28.8737 9.50225 29.298 9.52852 29.5234 9.32539C29.8436 9.03688 29.7977 8.01815 29.4357 7.37585C29.1733 6.91056 28.5554 6.38176 28.0173 6.16207C27.3853 5.904 26.6456 5.84439 26.4538 6.03604ZM5.96897 10.4208C4.72178 10.723 3.65594 11.6204 3.20085 12.7515C2.94973 13.3756 2.94745 14.4863 3.19598 15.1367C3.67197 16.3826 4.74653 17.2702 6.13617 17.5654C6.80537 17.7076 7.08045 17.6983 7.32458 17.5253C7.4851 17.4116 7.53162 17.3164 7.53162 17.1021C7.53162 16.7649 7.35617 16.6443 6.78431 16.5884C6.04518 16.5161 5.49336 16.2744 4.96708 15.7924C4.34408 15.2216 4.12824 14.7527 4.12133 13.955C4.11708 13.4616 4.14836 13.3275 4.36451 12.9142C4.84074 12.0034 5.66646 11.473 6.76349 11.3733C7.3212 11.3227 7.43191 11.2895 7.58756 11.1265C7.8188 10.8843 7.81503 10.6994 7.57444 10.4827C7.40905 10.3336 7.31122 10.3095 6.88693 10.3135C6.61491 10.3161 6.20185 10.3644 5.96897 10.4208ZM32.0033 11.629C31.7703 11.8556 31.7469 12.2173 31.9543 12.3865C32.0513 12.4656 32.2383 12.5037 32.5296 12.5037C33.798 12.5037 34.8261 13.4061 34.8282 14.5214C34.8291 15.0643 34.7016 15.3933 34.323 15.8251C33.9577 16.2413 33.3535 16.5302 32.7258 16.5886C32.2045 16.6371 32.0149 16.7877 32.0149 17.1537C32.0149 17.6455 32.4174 17.7663 33.3767 17.5626C35.1115 17.1941 36.2701 15.6381 35.9767 14.0707C35.7392 12.8019 34.8699 11.9311 33.466 11.5558C33.2313 11.493 32.8495 11.4417 32.6176 11.4417C32.2625 11.4417 32.1655 11.4713 32.0033 11.629ZM3.42934 22.9751C4.41983 23.4328 4.59056 24.4848 3.79101 25.2044C3.14475 25.7861 2.13642 25.703 1.53188 25.0182C1.26254 24.713 1.16794 24.1524 1.31714 23.7451C1.42377 23.4541 1.82213 23.0682 2.14939 22.939C2.49644 22.802 3.091 22.8187 3.42934 22.9751ZM36.9111 22.9789C37.9823 23.4713 38.0669 24.7707 37.0667 25.3671C36.4889 25.7117 35.7553 25.6549 35.21 25.2235C34.5621 24.7108 34.5384 23.7963 35.1586 23.2376C35.6159 22.8258 36.3442 22.7183 36.9111 22.9789ZM7.3729 28.5809C8.14999 28.7422 8.59086 29.2903 8.53861 30.0299C8.41792 31.7381 5.72154 31.7325 5.50782 30.0237C5.47741 29.7809 5.51434 29.6274 5.67298 29.3377C5.93196 28.8649 6.34894 28.6022 6.98161 28.5133C7.00322 28.5103 7.1793 28.5407 7.3729 28.5809ZM32.4162 28.611C33.0234 28.7735 33.5383 29.3743 33.5383 29.9203C33.5383 30.3494 33.1202 30.9518 32.6802 31.1569C32.1209 31.4175 31.4544 31.3438 30.9806 30.9688C30.5942 30.6632 30.4495 30.3774 30.4495 29.9203C30.4495 29.291 30.8496 28.7949 31.5063 28.6104C31.95 28.4857 31.948 28.4857 32.4162 28.611ZM20.4084 31.3661C21.3332 31.9435 21.2393 33.2994 20.2445 33.7333C18.7344 34.392 17.2816 32.7609 18.3548 31.6117C18.8439 31.0879 19.7831 30.9755 20.4084 31.3661Z" fill="#7EFFD4"/>
<path d="M16.105 11.632C15.929 11.3093 15.687 11.0637 15.379 10.895C15.071 10.7263 14.7117 10.642 14.301 10.642C13.8463 10.642 13.443 10.7447 13.091 10.95C12.739 11.1553 12.464 11.4487 12.266 11.83C12.068 12.2113 11.969 12.6513 11.969 13.15C11.969 13.6633 12.068 14.1107 12.266 14.492C12.4713 14.8733 12.7537 15.1667 13.113 15.372C13.4723 15.5773 13.8903 15.68 14.367 15.68C14.9537 15.68 15.434 15.526 15.808 15.218C16.182 14.9027 16.4277 14.4663 16.545 13.909H13.905V12.732H18.063V14.074C17.9603 14.6093 17.7403 15.1043 17.403 15.559C17.0657 16.0137 16.6293 16.3803 16.094 16.659C15.566 16.9303 14.972 17.066 14.312 17.066C13.5713 17.066 12.9003 16.901 12.299 16.571C11.705 16.2337 11.2357 15.768 10.891 15.174C10.5537 14.58 10.385 13.9053 10.385 13.15C10.385 12.3947 10.5537 11.72 10.891 11.126C11.2357 10.5247 11.705 10.059 12.299 9.729C12.9003 9.39167 13.5677 9.223 14.301 9.223C15.1663 9.223 15.918 9.43567 16.556 9.861C17.194 10.279 17.634 10.8693 17.876 11.632H16.105ZM20.7424 9.322V17H19.2024V9.322H20.7424ZM27.4889 9.322V10.565H25.4429V17H23.9029V10.565H21.8569V9.322H27.4889Z" fill="white"/>
</g>
<defs>
<clipPath id="clip0_0_1">
<rect width="1440" height="1080" fill="white" transform="translate(-50 -21)"/>
</clipPath>
</defs>
</svg>
