<svg xmlns="http://www.w3.org/2000/svg" width="243" height="43" viewBox="0 0 243 43" fill="none">
  <path d="M1.00415 21.4999C1.00415 19.5315 1.44406 17.7733 2.32387 16.2253C3.2228 14.6581 4.43734 13.4446 5.96743 12.5846C7.51666 11.7055 9.24759 11.2659 11.1602 11.2659C13.398 11.2659 15.3584 11.8393 17.0416 12.9859C18.7247 14.1326 19.901 15.7188 20.5704 17.7446H15.9514C15.4923 16.789 14.842 16.0724 14.0005 15.5946C13.178 15.1168 12.2217 14.8779 11.1315 14.8779C9.96483 14.8779 8.92245 15.155 8.00439 15.7093C7.10546 16.2444 6.39777 17.0088 5.88136 18.0026C5.38409 18.9964 5.13544 20.1621 5.13544 21.4999C5.13544 22.8186 5.38409 23.9844 5.88136 24.9973C6.39777 25.991 7.10546 26.765 8.00439 27.3193C8.92245 27.8544 9.96483 28.1219 11.1315 28.1219C12.2217 28.1219 13.178 27.883 14.0005 27.4053C14.842 26.9084 15.4923 26.1821 15.9514 25.2266H20.5704C19.901 27.2715 18.7247 28.8673 17.0416 30.0139C15.3776 31.1414 13.4171 31.7053 11.1602 31.7053C9.24759 31.7053 7.51666 31.2753 5.96743 30.4153C4.43734 29.5361 3.2228 28.3226 2.32387 26.7746C1.44406 25.2266 1.00415 23.4684 1.00415 21.4999ZM43.4767 23.5353C43.4767 21.9299 43.7922 20.5061 44.4234 19.2639C45.0738 18.0217 45.9537 17.0661 47.0628 16.3973C48.1723 15.7284 49.4059 15.3939 50.7638 15.3939C51.7966 15.3939 52.7818 15.6233 53.7188 16.0819C54.6561 16.5215 55.402 17.1139 55.9566 17.8593V10.3199H60.0305V31.5333H55.9566V29.1826C55.4594 29.9661 54.7614 30.5967 53.8622 31.0746C52.9634 31.5525 51.9211 31.7913 50.7351 31.7913C49.3964 31.7913 48.1723 31.4473 47.0628 30.7593C45.9537 30.0713 45.0738 29.1061 44.4234 27.8639C43.7922 26.6026 43.4767 25.1597 43.4767 23.5353ZM55.9853 23.5926C55.9853 22.6179 55.7942 21.7866 55.4115 21.0986C55.029 20.3915 54.5126 19.8564 53.8622 19.4933C53.2121 19.111 52.5138 18.9199 51.7679 18.9199C51.022 18.9199 50.3334 19.1015 49.7023 19.4646C49.0711 19.8277 48.5547 20.3628 48.153 21.0699C47.7706 21.7579 47.5792 22.5797 47.5792 23.5353C47.5792 24.4908 47.7706 25.3317 48.153 26.0579C48.5547 26.765 49.0711 27.3097 49.7023 27.6919C50.3527 28.0741 51.0412 28.2653 51.7679 28.2653C52.5138 28.2653 53.2121 28.0837 53.8622 27.7206C54.5126 27.3384 55.029 26.8033 55.4115 26.1153C55.7942 25.4081 55.9853 24.5673 55.9853 23.5926ZM78.7286 23.2486C78.7286 23.8219 78.6901 24.3379 78.6138 24.7966H66.9946C67.0901 25.9433 67.4918 26.8415 68.1995 27.4913C68.907 28.141 69.7775 28.4659 70.8103 28.4659C72.3021 28.4659 73.3636 27.8257 73.9948 26.5453H78.3269C77.8679 28.0741 76.988 29.3354 75.6875 30.3293C74.3867 31.3039 72.7898 31.7913 70.8963 31.7913C69.366 31.7913 67.989 31.4567 66.7651 30.7879C65.5601 30.0999 64.6133 29.1347 63.9248 27.8926C63.2552 26.6504 62.9207 25.217 62.9207 23.5926C62.9207 21.949 63.2552 20.5061 63.9248 19.2639C64.5941 18.0217 65.5314 17.0661 66.7364 16.3973C67.9413 15.7284 69.3279 15.3939 70.8963 15.3939C72.4071 15.3939 73.7555 15.7188 74.9416 16.3686C76.1465 17.0184 77.074 17.9453 77.7244 19.1493C78.3938 20.3341 78.7286 21.7006 78.7286 23.2486ZM74.5686 22.1019C74.5494 21.0699 74.1764 20.2481 73.4497 19.6366C72.7227 19.0059 71.8333 18.6906 70.7816 18.6906C69.7869 18.6906 68.9455 18.9964 68.2569 19.6079C67.5873 20.2004 67.1762 21.0317 67.0233 22.1019H74.5686ZM87.521 21.4999C87.521 19.5315 87.9609 17.7733 88.8408 16.2253C89.7396 14.6581 90.954 13.4446 92.4843 12.5846C94.0336 11.7055 95.7644 11.2659 97.6771 11.2659C99.9149 11.2659 101.875 11.8393 103.558 12.9859C105.241 14.1326 106.418 15.7188 107.087 17.7446H102.468C102.009 16.789 101.359 16.0724 100.517 15.5946C99.6949 15.1168 98.7386 14.8779 97.6484 14.8779C96.4816 14.8779 95.4393 15.155 94.5213 15.7093C93.6222 16.2444 92.9147 17.0088 92.3983 18.0026C91.9008 18.9964 91.6523 20.1621 91.6523 21.4999C91.6523 22.8186 91.9008 23.9844 92.3983 24.9973C92.9147 25.991 93.6222 26.765 94.5213 27.3193C95.4393 27.8544 96.4816 28.1219 97.6484 28.1219C98.7386 28.1219 99.6949 27.883 100.517 27.4053C101.359 26.9084 102.009 26.1821 102.468 25.2266H107.087C106.418 27.2715 105.241 28.8673 103.558 30.0139C101.894 31.1414 99.9338 31.7053 97.6771 31.7053C95.7644 31.7053 94.0336 31.2753 92.4843 30.4153C90.954 29.5361 89.7396 28.3226 88.8408 26.7746C87.9609 25.2266 87.521 23.4684 87.521 21.4999ZM119.469 15.4226C120.674 15.4226 121.745 15.6901 122.682 16.2253C123.619 16.7413 124.346 17.5153 124.862 18.5473C125.398 19.5601 125.666 20.7833 125.666 22.2166V31.5333H121.649V22.7613C121.649 21.4999 121.334 20.5348 120.702 19.8659C120.071 19.1779 119.211 18.8339 118.12 18.8339C117.011 18.8339 116.131 19.1779 115.481 19.8659C114.85 20.5348 114.534 21.4999 114.534 22.7613V31.5333H110.518V10.3199H114.534V17.6299C115.051 16.9419 115.739 16.4068 116.6 16.0246C117.461 15.6233 118.417 15.4226 119.469 15.4226ZM133.502 18.1173C134.018 17.2764 134.688 16.617 135.51 16.1393C136.352 15.6615 137.308 15.4226 138.379 15.4226V19.6366H137.318C136.055 19.6366 135.099 19.9328 134.449 20.5253C133.818 21.1177 133.502 22.1497 133.502 23.6213V31.5333H129.485V15.6519H133.502V18.1173ZM148.142 31.7913C146.612 31.7913 145.235 31.4567 144.011 30.7879C142.787 30.0999 141.821 29.1347 141.113 27.8926C140.424 26.6504 140.08 25.217 140.08 23.5926C140.08 21.9681 140.434 20.5348 141.142 19.2926C141.869 18.0504 142.854 17.0948 144.097 16.4259C145.34 15.7379 146.727 15.3939 148.257 15.3939C149.787 15.3939 151.174 15.7379 152.417 16.4259C153.66 17.0948 154.636 18.0504 155.343 19.2926C156.07 20.5348 156.433 21.9681 156.433 23.5926C156.433 25.217 156.06 26.6504 155.314 27.8926C154.588 29.1347 153.593 30.0999 152.331 30.7879C151.087 31.4567 149.691 31.7913 148.142 31.7913ZM148.142 28.2939C148.869 28.2939 149.548 28.1219 150.179 27.7779C150.829 27.4148 151.346 26.8797 151.728 26.1726C152.111 25.4655 152.302 24.6055 152.302 23.5926C152.302 22.0828 151.9 20.9266 151.097 20.1239C150.313 19.3021 149.347 18.8913 148.199 18.8913C147.052 18.8913 146.086 19.3021 145.302 20.1239C144.537 20.9266 144.154 22.0828 144.154 23.5926C144.154 25.1024 144.527 26.2681 145.273 27.0899C146.038 27.8926 146.994 28.2939 148.142 28.2939ZM168.187 15.4226C170.081 15.4226 171.611 16.0246 172.778 17.2286C173.944 18.4135 174.528 20.0761 174.528 22.2166V31.5333H170.511V22.7613C170.511 21.4999 170.196 20.5348 169.564 19.8659C168.933 19.1779 168.073 18.8339 166.982 18.8339C165.873 18.8339 164.993 19.1779 164.343 19.8659C163.712 20.5348 163.396 21.4999 163.396 22.7613V31.5333H159.38V15.6519H163.396V17.6299C163.931 16.9419 164.611 16.4068 165.433 16.0246C166.275 15.6233 167.193 15.4226 168.187 15.4226ZM180.384 13.7599C179.676 13.7599 179.084 13.5401 178.605 13.1006C178.146 12.6419 177.917 12.0781 177.917 11.4093C177.917 10.7404 178.146 10.1861 178.605 9.74659C179.084 9.28793 179.676 9.05859 180.384 9.05859C181.092 9.05859 181.675 9.28793 182.134 9.74659C182.612 10.1861 182.851 10.7404 182.851 11.4093C182.851 12.0781 182.612 12.6419 182.134 13.1006C181.675 13.5401 181.092 13.7599 180.384 13.7599ZM182.364 15.6519V31.5333H178.347V15.6519H182.364ZM185.299 23.5926C185.299 21.949 185.634 20.5157 186.303 19.2926C186.973 18.0504 187.9 17.0948 189.086 16.4259C190.272 15.7379 191.63 15.3939 193.16 15.3939C195.13 15.3939 196.756 15.8908 198.037 16.8846C199.338 17.8593 200.208 19.2353 200.648 21.0126H196.316C196.086 20.3246 195.694 19.7895 195.14 19.4073C194.604 19.0059 193.935 18.8053 193.131 18.8053C191.984 18.8053 191.075 19.2257 190.406 20.0666C189.737 20.8884 189.402 22.0637 189.402 23.5926C189.402 25.1024 189.737 26.2777 190.406 27.1186C191.075 27.9404 191.984 28.3513 193.131 28.3513C194.757 28.3513 195.819 27.625 196.316 26.1726H200.648C200.208 27.8926 199.338 29.2591 198.037 30.2719C196.737 31.2847 195.111 31.7913 193.16 31.7913C191.63 31.7913 190.272 31.4567 189.086 30.7879C187.9 30.0999 186.973 29.1445 186.303 27.9213C185.634 26.679 185.299 25.2361 185.299 23.5926ZM207.607 10.3199V31.5333H203.59V10.3199H207.607ZM226.35 23.2486C226.35 23.8219 226.312 24.3379 226.236 24.7966H214.616C214.712 25.9433 215.114 26.8415 215.821 27.4913C216.529 28.141 217.399 28.4659 218.432 28.4659C219.924 28.4659 220.985 27.8257 221.617 26.5453H225.949C225.49 28.0741 224.61 29.3354 223.309 30.3293C222.009 31.3039 220.412 31.7913 218.518 31.7913C216.988 31.7913 215.611 31.4567 214.387 30.7879C213.182 30.0999 212.235 29.1347 211.547 27.8926C210.877 26.6504 210.542 25.217 210.542 23.5926C210.542 21.949 210.877 20.5061 211.547 19.2639C212.216 18.0217 213.153 17.0661 214.358 16.3973C215.563 15.7284 216.95 15.3939 218.518 15.3939C220.029 15.3939 221.378 15.7188 222.563 16.3686C223.768 17.0184 224.696 17.9453 225.346 19.1493C226.016 20.3341 226.35 21.7006 226.35 23.2486ZM222.19 22.1019C222.171 21.0699 221.798 20.2481 221.071 19.6366C220.345 19.0059 219.455 18.6906 218.403 18.6906C217.409 18.6906 216.567 18.9964 215.879 19.6079C215.209 20.2004 214.798 21.0317 214.645 22.1019H222.19ZM235.364 31.7913C234.064 31.7913 232.897 31.5619 231.864 31.1033C230.831 30.6254 230.009 29.9853 229.397 29.1826C228.804 28.3799 228.479 27.4913 228.421 26.5166H232.467C232.543 27.1281 232.84 27.6346 233.356 28.0359C233.892 28.4373 234.552 28.6379 235.336 28.6379C236.101 28.6379 236.693 28.485 237.114 28.1793C237.554 27.8735 237.774 27.4817 237.774 27.0039C237.774 26.4879 237.507 26.1057 236.971 25.8573C236.454 25.5897 235.622 25.303 234.475 24.9973C233.289 24.7106 232.314 24.4144 231.549 24.1086C230.803 23.8028 230.152 23.3346 229.598 22.7039C229.062 22.0733 228.794 21.2228 228.794 20.1526C228.794 19.2735 229.043 18.4708 229.54 17.7446C230.057 17.0184 230.783 16.445 231.721 16.0246C232.677 15.6041 233.796 15.3939 235.077 15.3939C236.971 15.3939 238.482 15.8717 239.61 16.8273C240.739 17.7637 241.36 19.0346 241.475 20.6399H237.631C237.573 20.0093 237.306 19.5124 236.827 19.1493C236.368 18.767 235.747 18.5759 234.963 18.5759C234.236 18.5759 233.672 18.7097 233.27 18.9773C232.888 19.2448 232.696 19.6175 232.696 20.0953C232.696 20.6304 232.964 21.0413 233.499 21.3279C234.035 21.5955 234.867 21.8726 235.995 22.1593C237.143 22.4459 238.09 22.7421 238.836 23.0479C239.582 23.3537 240.222 23.8315 240.758 24.4813C241.312 25.1119 241.599 25.9528 241.619 27.0039C241.619 27.9213 241.36 28.7431 240.844 29.4693C240.347 30.1954 239.62 30.7687 238.664 31.1893C237.726 31.5906 236.627 31.7913 235.364 31.7913Z" fill="white"/>
  <path fill-rule="evenodd" clip-rule="evenodd" d="M31.8281 15.2002C30.3058 15.3032 28.9273 15.7737 27.7215 16.6017C25.8798 17.8664 24.6236 19.8079 24.2299 21.9979C24.0555 22.9677 24.0555 24.0544 24.2299 25.0242C24.7981 28.1848 27.1764 30.7788 30.2281 31.566C30.9522 31.7529 31.493 31.82 32.2762 31.82C32.8844 31.82 33.2416 31.7893 33.7646 31.6922C37.0803 31.0761 39.7165 28.3956 40.3227 25.0242C40.4734 24.1857 40.4943 23.1419 40.3761 22.3443C40.1044 20.5071 39.3261 18.9286 38.0546 17.6359C36.7862 16.3464 35.204 15.5389 33.4398 15.2809C33.0072 15.2177 32.1815 15.1763 31.8281 15.2002ZM32.0203 17.4248V19.0794L31.7242 19.098C31.5613 19.1082 31.2626 19.1251 31.0601 19.1355C30.5175 19.1634 29.6262 19.2671 28.9402 19.3821C28.6081 19.4378 28.3295 19.4765 28.3213 19.4681C28.297 19.4435 28.5826 18.7745 28.7761 18.403C29.3223 17.3534 30.041 16.5547 30.836 16.1133C31.1653 15.9304 31.8969 15.7062 31.9962 15.7577C32.0094 15.7645 32.0203 16.5147 32.0203 17.4248ZM33.1639 15.8798C34.1688 16.2038 35.0998 17.103 35.7766 18.403C35.97 18.7745 36.2554 19.4435 36.2313 19.4681C36.223 19.4765 35.9444 19.4378 35.6122 19.3821C34.9265 19.2671 34.0352 19.1634 33.4923 19.1355C33.2901 19.1251 32.9911 19.1082 32.8285 19.098L32.5324 19.0794V17.4283C32.5324 16.5201 32.5396 15.7696 32.5487 15.7604C32.5766 15.7322 32.9022 15.7954 33.1639 15.8798ZM29.5358 16.4903C29.1117 16.9306 28.9012 17.1953 28.5981 17.67C28.246 18.2211 27.9025 18.9464 27.7603 19.4387C27.7378 19.5166 27.7042 19.5863 27.6855 19.5935C27.6315 19.6143 25.4762 19.99 25.4657 19.9804C25.4604 19.9757 25.5378 19.8273 25.6376 19.6507C25.9731 19.057 26.3002 18.6205 26.8012 18.0981C27.4435 17.4282 28.0629 16.9638 28.8518 16.5606C29.1387 16.414 29.7923 16.1322 29.8582 16.1268C29.8746 16.1254 29.7297 16.289 29.5358 16.4903ZM35.0212 16.253C36.4583 16.8224 37.6916 17.8131 38.5882 19.118C38.7425 19.3427 39.1029 19.9659 39.0868 19.9804C39.0762 19.99 36.921 19.6143 36.8671 19.5935C36.8484 19.5863 36.8146 19.5166 36.7922 19.4387C36.6499 18.9464 36.3065 18.2211 35.9545 17.67C35.6512 17.1953 35.4409 16.9306 35.0169 16.4903C34.823 16.289 34.6715 16.1242 34.6801 16.1242C34.689 16.1242 34.8425 16.1822 35.0212 16.253ZM32.0125 21.4366L32.0042 23.2344L29.8155 23.2428L27.6265 23.2512L27.6495 22.8198C27.6914 22.0369 27.8143 21.2111 27.9948 20.501C28.0494 20.2862 28.1029 20.0999 28.1137 20.0869C28.1355 20.0607 29.5246 19.825 30.004 19.7662C30.5356 19.701 31.2557 19.6467 31.6445 19.6426L32.0209 19.6387L32.0125 21.4366ZM33.7207 19.6865C34.0308 19.7123 34.4124 19.7493 34.5688 19.7686C35.039 19.8269 36.4178 20.0615 36.4388 20.0869C36.4497 20.0999 36.503 20.2862 36.5578 20.501C36.7383 21.2111 36.8611 22.0369 36.903 22.8198L36.9259 23.2512L34.7372 23.2428L32.5482 23.2344L32.5401 21.4366L32.5318 19.6387L32.844 19.6391C33.0158 19.6394 33.4103 19.6607 33.7207 19.6865ZM27.4566 20.4929C27.2964 21.125 27.1247 22.3031 27.1234 22.7789C27.123 22.9042 27.1138 23.0616 27.1029 23.1287L27.0831 23.2507H25.8534H24.6238L24.6443 22.966C24.6902 22.3286 24.8568 21.5216 25.067 20.9179L25.1824 20.5863L25.4728 20.534C26.9576 20.2662 27.3453 20.1993 27.4322 20.1958L27.5328 20.1919L27.4566 20.4929ZM38.2482 20.3876C38.8601 20.4953 39.3639 20.5868 39.3674 20.591C39.3708 20.5952 39.425 20.7451 39.4876 20.9241C39.6947 21.5164 39.8623 22.3299 39.9082 22.966L39.9288 23.2507H38.6992H37.4696L37.4495 23.1287C37.4386 23.0616 37.4294 22.9042 37.4291 22.7789C37.4277 22.3031 37.2561 21.125 37.096 20.4929C37.0243 20.2097 37.0232 20.1919 37.0774 20.1919C37.1092 20.1919 37.636 20.28 38.2482 20.3876ZM27.1029 23.8934C27.1138 23.9605 27.123 24.1179 27.1234 24.2432C27.1247 24.719 27.2964 25.8971 27.4566 26.5292C27.5283 26.8124 27.5294 26.8302 27.4751 26.8302C27.4129 26.8302 25.1957 26.4438 25.1851 26.4311C25.1816 26.4269 25.1275 26.277 25.0649 26.098C24.8577 25.5056 24.6901 24.6922 24.6443 24.0561L24.6238 23.7714H25.8534H27.0831L27.1029 23.8934ZM32.0125 25.5855L32.0209 27.3834L31.7084 27.383C31.3837 27.3825 30.4754 27.3143 29.9839 27.2535C29.5137 27.1952 28.1348 26.9606 28.1137 26.9352C28.1029 26.9222 28.0494 26.7358 27.9948 26.5211C27.8143 25.811 27.6914 24.9851 27.6495 24.2023L27.6265 23.7709L29.8155 23.7793L32.0042 23.7877L32.0125 25.5855ZM36.903 24.2025C36.8611 24.9851 36.7383 25.8111 36.5578 26.5211C36.503 26.7358 36.4497 26.9222 36.4388 26.9352C36.4178 26.9606 35.039 27.1952 34.5688 27.2535C34.0773 27.3143 33.169 27.3825 32.8443 27.383L32.5324 27.3834V25.5991C32.5324 24.6177 32.5419 23.805 32.5536 23.7931C32.5654 23.7811 33.554 23.7714 34.7504 23.7714H36.9259L36.903 24.2025ZM39.9082 24.0561C39.8623 24.6922 39.6947 25.5056 39.4876 26.098C39.425 26.277 39.3708 26.4269 39.3674 26.4311C39.3568 26.4438 37.1396 26.8302 37.0774 26.8302C37.0232 26.8302 37.0243 26.8124 37.096 26.5292C37.2561 25.8971 37.4277 24.719 37.4291 24.2432C37.4294 24.1179 37.4386 23.9605 37.4495 23.8934L37.4696 23.7714H38.6992H39.9288L39.9082 24.0561ZM26.6274 27.2373C27.2083 27.3381 27.6926 27.4305 27.7036 27.4427C27.7147 27.4548 27.749 27.5453 27.78 27.6437C27.9461 28.1717 28.2518 28.81 28.5981 29.3521C28.9012 29.8268 29.1117 30.0914 29.5358 30.5317C29.7297 30.733 29.8812 30.8978 29.8723 30.8978C29.8198 30.8978 29.1548 30.6143 28.8768 30.4733C27.7192 29.8859 26.7212 29.0055 25.9644 27.9041C25.8251 27.7013 25.4592 27.0743 25.4592 27.0384C25.4592 27.0289 25.4844 27.0285 25.5152 27.0376C25.546 27.0467 26.0465 27.1366 26.6274 27.2373ZM39.0934 27.0406C39.0934 27.0489 39.0122 27.199 38.9135 27.3741C38.5796 27.9649 38.2516 28.4024 37.7513 28.9241C37.1003 29.6032 36.4832 30.0636 35.6756 30.4733C35.3976 30.6143 34.7329 30.8978 34.6801 30.8978C34.6715 30.8978 34.823 30.733 35.0169 30.5317C35.4409 30.0914 35.6512 29.8268 35.9545 29.3521C36.3065 28.8011 36.6499 28.0757 36.7922 27.5834C36.8146 27.5055 36.8484 27.4358 36.8671 27.4285C36.8918 27.419 38.8911 27.0564 39.0693 27.0292C39.0825 27.0271 39.0934 27.0323 39.0934 27.0406ZM28.954 27.6421C29.736 27.7743 30.5413 27.8634 31.3128 27.9031C31.6717 27.9215 31.9781 27.9366 31.9933 27.9366C32.0085 27.9366 32.0171 28.685 32.0125 29.6044L32.0042 31.2719L31.8771 31.2607C31.6663 31.2421 31.2201 31.0982 30.9407 30.9583C29.9394 30.4572 29.0489 29.3716 28.4527 27.9246C28.3729 27.731 28.3076 27.5667 28.3076 27.5594C28.3076 27.5357 28.3796 27.5449 28.954 27.6421ZM36.2448 27.5594C36.2448 27.6093 35.9229 28.3379 35.7766 28.6191C35.1942 29.738 34.3708 30.6152 33.546 30.9953C33.2967 31.1102 32.8546 31.245 32.6753 31.2607L32.5482 31.2719L32.5401 29.6044C32.5335 28.2811 32.5401 27.9366 32.572 27.9363C33.2961 27.9307 34.728 27.7913 35.5568 27.6456C36.0644 27.5564 36.2448 27.5338 36.2448 27.5594Z" fill="#7EFFD4"/>
  <mask id="mask0_34_325" style="mask-type:luminance" maskUnits="userSpaceOnUse" x="23" y="14" width="19" height="19">
    <path d="M40.7391 14.9067H23.8123V32.1067H40.7391V14.9067Z" fill="#1D1D1D" stroke="#CAF813"/>
    <path fill-rule="evenodd" clip-rule="evenodd" d="M31.8281 15.2002C30.3058 15.3032 28.9273 15.7737 27.7215 16.6017C25.8798 17.8664 24.6236 19.8079 24.2299 21.9979C24.0555 22.9677 24.0555 24.0544 24.2299 25.0242C24.7981 28.1848 27.1764 30.7788 30.2281 31.566C30.9522 31.7529 31.493 31.82 32.2762 31.82C32.8844 31.82 33.2416 31.7893 33.7646 31.6922C37.0803 31.0761 39.7165 28.3956 40.3227 25.0242C40.4734 24.1857 40.4943 23.1419 40.3761 22.3443C40.1044 20.5071 39.3261 18.9286 38.0546 17.6359C36.7862 16.3464 35.204 15.5389 33.4398 15.2809C33.0072 15.2177 32.1815 15.1763 31.8281 15.2002ZM32.0203 17.4248V19.0794L31.7242 19.098C31.5613 19.1082 31.2626 19.1251 31.0601 19.1355C30.5175 19.1634 29.6262 19.2671 28.9402 19.3821C28.6081 19.4378 28.3295 19.4765 28.3213 19.4681C28.297 19.4435 28.5826 18.7745 28.7761 18.403C29.3223 17.3534 30.041 16.5547 30.836 16.1133C31.1653 15.9304 31.8969 15.7062 31.9962 15.7577C32.0094 15.7645 32.0203 16.5147 32.0203 17.4248ZM33.1639 15.8798C34.1688 16.2038 35.0998 17.103 35.7766 18.403C35.97 18.7745 36.2554 19.4435 36.2313 19.4681C36.223 19.4765 35.9444 19.4378 35.6122 19.3821C34.9265 19.2671 34.0352 19.1634 33.4923 19.1355C33.2901 19.1251 32.9911 19.1082 32.8285 19.098L32.5324 19.0794V17.4283C32.5324 16.5201 32.5396 15.7696 32.5488 15.7604C32.5766 15.7322 32.9022 15.7954 33.1639 15.8798ZM29.5358 16.4903C29.1117 16.9306 28.9012 17.1953 28.5981 17.67C28.246 18.2211 27.9025 18.9464 27.7603 19.4387C27.7378 19.5166 27.7042 19.5863 27.6855 19.5935C27.6315 19.6143 25.4762 19.99 25.4657 19.9804C25.4604 19.9757 25.5378 19.8273 25.6376 19.6507C25.9731 19.057 26.3002 18.6205 26.8012 18.0981C27.4435 17.4282 28.0629 16.9638 28.8518 16.5606C29.1387 16.414 29.7923 16.1322 29.8582 16.1268C29.8746 16.1254 29.7297 16.289 29.5358 16.4903ZM35.0212 16.253C36.4583 16.8224 37.6916 17.8131 38.5882 19.118C38.7425 19.3427 39.1029 19.9659 39.0868 19.9804C39.0762 19.99 36.921 19.6143 36.8671 19.5935C36.8484 19.5863 36.8146 19.5166 36.7922 19.4387C36.6499 18.9464 36.3065 18.2211 35.9545 17.67C35.6512 17.1953 35.4409 16.9306 35.0169 16.4903C34.823 16.289 34.6715 16.1242 34.6801 16.1242C34.689 16.1242 34.8425 16.1822 35.0212 16.253ZM32.0125 21.4366L32.0042 23.2344L29.8155 23.2428L27.6265 23.2512L27.6495 22.8198C27.6914 22.0369 27.8143 21.2111 27.9948 20.501C28.0494 20.2862 28.1029 20.0999 28.1137 20.0869C28.1355 20.0607 29.5246 19.825 30.004 19.7662C30.5356 19.701 31.2557 19.6467 31.6445 19.6426L32.0209 19.6387L32.0125 21.4366ZM33.7207 19.6865C34.0308 19.7123 34.4124 19.7493 34.5688 19.7686C35.039 19.8269 36.4178 20.0615 36.4388 20.0869C36.4497 20.0999 36.503 20.2862 36.5578 20.501C36.7383 21.2111 36.8611 22.0369 36.903 22.8198L36.9259 23.2512L34.7372 23.2428L32.5482 23.2344L32.5401 21.4366L32.5318 19.6387L32.844 19.6391C33.0158 19.6394 33.4103 19.6607 33.7207 19.6865ZM27.4566 20.4929C27.2964 21.125 27.1247 22.3031 27.1234 22.7789C27.123 22.9042 27.1138 23.0616 27.1029 23.1287L27.0831 23.2507H25.8534H24.6238L24.6443 22.966C24.6902 22.3286 24.8568 21.5216 25.067 20.9179L25.1824 20.5863L25.4728 20.534C26.9576 20.2662 27.3453 20.1993 27.4322 20.1958L27.5328 20.1919L27.4566 20.4929ZM38.2482 20.3876C38.8601 20.4953 39.3639 20.5868 39.3674 20.591C39.3708 20.5952 39.425 20.7451 39.4876 20.9241C39.6947 21.5164 39.8623 22.3299 39.9082 22.966L39.9288 23.2507H38.6992H37.4696L37.4495 23.1287C37.4386 23.0616 37.4294 22.9042 37.4291 22.7789C37.4277 22.3031 37.2561 21.125 37.096 20.4929C37.0243 20.2097 37.0232 20.1919 37.0774 20.1919C37.1092 20.1919 37.636 20.28 38.2482 20.3876ZM27.1029 23.8934C27.1138 23.9605 27.123 24.1179 27.1234 24.2432C27.1247 24.719 27.2964 25.8971 27.4566 26.5292C27.5283 26.8124 27.5294 26.8302 27.4751 26.8302C27.4129 26.8302 25.1957 26.4438 25.1851 26.4311C25.1816 26.4269 25.1275 26.277 25.0649 26.098C24.8577 25.5056 24.6901 24.6922 24.6443 24.0561L24.6238 23.7714H25.8534H27.0831L27.1029 23.8934ZM32.0125 25.5855L32.0209 27.3834L31.7084 27.383C31.3837 27.3825 30.4754 27.3143 29.9839 27.2535C29.5137 27.1952 28.1348 26.9606 28.1137 26.9352C28.1029 26.9222 28.0494 26.7358 27.9948 26.5211C27.8143 25.811 27.6914 24.9851 27.6495 24.2023L27.6265 23.7709L29.8155 23.7793L32.0042 23.7877L32.0125 25.5855ZM36.903 24.2025C36.8611 24.9851 36.7383 25.8111 36.5578 26.5211C36.503 26.7358 36.4497 26.9222 36.4388 26.9352C36.4178 26.9606 35.039 27.1952 34.5688 27.2535C34.0773 27.3143 33.169 27.3825 32.8443 27.383L32.5324 27.3834V25.5991C32.5324 24.6177 32.5419 23.805 32.5536 23.7931C32.5654 23.7811 33.554 23.7714 34.7504 23.7714H36.9259L36.903 24.2025ZM39.9082 24.0561C39.8623 24.6922 39.6947 25.5056 39.4876 26.098C39.425 26.277 39.3708 26.4269 39.3674 26.4311C39.3568 26.4438 37.1396 26.8302 37.0774 26.8302C37.0232 26.8302 37.0243 26.8124 37.096 26.5292C37.2561 25.8971 37.4277 24.719 37.4291 24.2432C37.4294 24.1179 37.4386 23.9605 37.4495 23.8934L37.4696 23.7714H38.6992H39.9288L39.9082 24.0561ZM26.6274 27.2373C27.2083 27.3381 27.6926 27.4305 27.7036 27.4427C27.7147 27.4548 27.749 27.5453 27.78 27.6437C27.9461 28.1717 28.2518 28.81 28.5981 29.3521C28.9012 29.8268 29.1117 30.0914 29.5358 30.5317C29.7297 30.733 29.8812 30.8978 29.8723 30.8978C29.8198 30.8978 29.1548 30.6143 28.8768 30.4733C27.7192 29.8859 26.7212 29.0055 25.9644 27.9041C25.8251 27.7013 25.4592 27.0743 25.4592 27.0384C25.4592 27.0289 25.4844 27.0285 25.5152 27.0376C25.546 27.0467 26.0465 27.1366 26.6274 27.2373ZM39.0934 27.0406C39.0934 27.0489 39.0122 27.199 38.9135 27.3741C38.5796 27.9649 38.2516 28.4024 37.7513 28.9241C37.1003 29.6032 36.4832 30.0636 35.6756 30.4733C35.3976 30.6143 34.7329 30.8978 34.6801 30.8978C34.6715 30.8978 34.823 30.733 35.0169 30.5317C35.4409 30.0914 35.6512 29.8268 35.9545 29.3521C36.3065 28.8011 36.6499 28.0757 36.7922 27.5834C36.8146 27.5055 36.8484 27.4358 36.8671 27.4285C36.8918 27.419 38.8911 27.0564 39.0693 27.0292C39.0825 27.0271 39.0934 27.0323 39.0934 27.0406ZM28.954 27.6421C29.736 27.7743 30.5413 27.8634 31.3128 27.9031C31.6717 27.9215 31.9781 27.9366 31.9933 27.9366C32.0085 27.9366 32.0171 28.685 32.0125 29.6044L32.0042 31.2719L31.8771 31.2607C31.6663 31.2421 31.2201 31.0982 30.9407 30.9583C29.9394 30.4572 29.0489 29.3716 28.4527 27.9246C28.3729 27.731 28.3076 27.5667 28.3076 27.5594C28.3076 27.5357 28.3796 27.5449 28.954 27.6421ZM36.2448 27.5594C36.2448 27.6093 35.9229 28.3379 35.7766 28.6191C35.1942 29.738 34.3708 30.6152 33.546 30.9953C33.2967 31.1102 32.8546 31.245 32.6753 31.2607L32.5482 31.2719L32.5401 29.6044C32.5335 28.2811 32.5401 27.9365 32.572 27.9363C33.2961 27.9307 34.728 27.7913 35.5568 27.6456C36.0644 27.5564 36.2448 27.5338 36.2448 27.5594Z" stroke="#CAF813"/>
  </mask>
  <g mask="url(#mask0_34_325)">
    <path fill-rule="evenodd" clip-rule="evenodd" d="M31.8281 15.2002C30.3058 15.3032 28.9273 15.7737 27.7215 16.6017C25.8798 17.8664 24.6236 19.8079 24.2299 21.9979C24.0555 22.9677 24.0555 24.0544 24.2299 25.0242C24.7981 28.1848 27.1764 30.7788 30.2281 31.566C30.9522 31.7529 31.493 31.82 32.2762 31.82C32.8844 31.82 33.2416 31.7893 33.7646 31.6922C37.0803 31.0761 39.7165 28.3956 40.3227 25.0242C40.4734 24.1857 40.4943 23.1419 40.3761 22.3443C40.1044 20.5071 39.3261 18.9286 38.0546 17.6359C36.7862 16.3464 35.204 15.5389 33.4398 15.2809C33.0072 15.2177 32.1815 15.1763 31.8281 15.2002ZM32.0203 17.4248V19.0794L31.7242 19.098C31.5613 19.1082 31.2626 19.1251 31.0601 19.1355C30.5175 19.1634 29.6262 19.2671 28.9402 19.3821C28.6081 19.4378 28.3295 19.4765 28.3213 19.4681C28.297 19.4435 28.5826 18.7745 28.7761 18.403C29.3223 17.3534 30.041 16.5547 30.836 16.1133C31.1653 15.9304 31.8969 15.7062 31.9962 15.7577C32.0094 15.7645 32.0203 16.5147 32.0203 17.4248ZM33.1639 15.8798C34.1688 16.2038 35.0998 17.103 35.7766 18.403C35.97 18.7745 36.2554 19.4435 36.2313 19.4681C36.223 19.4765 35.9444 19.4378 35.6122 19.3821C34.9265 19.2671 34.0352 19.1634 33.4923 19.1355C33.2901 19.1251 32.9911 19.1082 32.8285 19.098L32.5324 19.0794V17.4283C32.5324 16.5201 32.5396 15.7696 32.5488 15.7604C32.5766 15.7322 32.9022 15.7954 33.1639 15.8798ZM29.5358 16.4903C29.1117 16.9306 28.9012 17.1953 28.5981 17.67C28.246 18.2211 27.9025 18.9464 27.7603 19.4387C27.7378 19.5166 27.7042 19.5863 27.6855 19.5935C27.6315 19.6143 25.4762 19.99 25.4657 19.9804C25.4604 19.9757 25.5378 19.8273 25.6376 19.6507C25.9731 19.057 26.3002 18.6205 26.8012 18.0981C27.4435 17.4282 28.0629 16.9638 28.8518 16.5606C29.1387 16.414 29.7923 16.1322 29.8582 16.1268C29.8746 16.1254 29.7297 16.289 29.5358 16.4903ZM35.0212 16.253C36.4583 16.8224 37.6916 17.8131 38.5882 19.118C38.7425 19.3427 39.1029 19.9659 39.0868 19.9804C39.0762 19.99 36.921 19.6143 36.8671 19.5935C36.8484 19.5863 36.8146 19.5166 36.7922 19.4387C36.6499 18.9464 36.3065 18.2211 35.9545 17.67C35.6512 17.1953 35.4409 16.9306 35.0169 16.4903C34.823 16.289 34.6715 16.1242 34.6801 16.1242C34.689 16.1242 34.8425 16.1822 35.0212 16.253ZM32.0125 21.4366L32.0042 23.2344L29.8155 23.2428L27.6265 23.2512L27.6495 22.8198C27.6914 22.0369 27.8143 21.2111 27.9948 20.501C28.0494 20.2862 28.1029 20.0999 28.1137 20.0869C28.1355 20.0607 29.5246 19.825 30.004 19.7662C30.5356 19.701 31.2557 19.6467 31.6445 19.6426L32.0209 19.6387L32.0125 21.4366ZM33.7207 19.6865C34.0308 19.7123 34.4124 19.7493 34.5688 19.7686C35.039 19.8269 36.4178 20.0615 36.4388 20.0869C36.4497 20.0999 36.503 20.2862 36.5578 20.501C36.7383 21.2111 36.8611 22.0369 36.903 22.8198L36.9259 23.2512L34.7372 23.2428L32.5482 23.2344L32.5401 21.4366L32.5318 19.6387L32.844 19.6391C33.0158 19.6394 33.4103 19.6607 33.7207 19.6865ZM27.4566 20.4929C27.2964 21.125 27.1247 22.3031 27.1234 22.7789C27.123 22.9042 27.1138 23.0616 27.1029 23.1287L27.0831 23.2507H25.8534H24.6238L24.6443 22.966C24.6902 22.3286 24.8568 21.5216 25.067 20.9179L25.1824 20.5863L25.4728 20.534C26.9576 20.2662 27.3453 20.1993 27.4322 20.1958L27.5328 20.1919L27.4566 20.4929ZM38.2482 20.3876C38.8601 20.4953 39.3639 20.5868 39.3674 20.591C39.3708 20.5952 39.425 20.7451 39.4876 20.9241C39.6947 21.5164 39.8623 22.3299 39.9082 22.966L39.9288 23.2507H38.6992H37.4696L37.4495 23.1287C37.4386 23.0616 37.4294 22.9042 37.4291 22.7789C37.4277 22.3031 37.2561 21.125 37.096 20.4929C37.0243 20.2097 37.0232 20.1919 37.0774 20.1919C37.1092 20.1919 37.636 20.28 38.2482 20.3876ZM27.1029 23.8934C27.1138 23.9605 27.123 24.1179 27.1234 24.2432C27.1247 24.719 27.2964 25.8971 27.4566 26.5292C27.5283 26.8124 27.5294 26.8302 27.4751 26.8302C27.4129 26.8302 25.1957 26.4438 25.1851 26.4311C25.1816 26.4269 25.1275 26.277 25.0649 26.098C24.8577 25.5056 24.6901 24.6922 24.6443 24.0561L24.6238 23.7714H25.8534H27.0831L27.1029 23.8934ZM32.0125 25.5855L32.0209 27.3834L31.7084 27.383C31.3837 27.3825 30.4754 27.3143 29.9839 27.2535C29.5137 27.1952 28.1348 26.9606 28.1137 26.9352C28.1029 26.9222 28.0494 26.7358 27.9948 26.5211C27.8143 25.811 27.6914 24.9851 27.6495 24.2023L27.6265 23.7709L29.8155 23.7793L32.0042 23.7877L32.0125 25.5855ZM36.903 24.2025C36.8611 24.9851 36.7383 25.8111 36.5578 26.5211C36.503 26.7358 36.4497 26.9222 36.4388 26.9352C36.4178 26.9606 35.039 27.1952 34.5688 27.2535C34.0773 27.3143 33.169 27.3825 32.8443 27.383L32.5324 27.3834V25.5991C32.5324 24.6177 32.5419 23.805 32.5536 23.7931C32.5654 23.7811 33.554 23.7714 34.7504 23.7714H36.9259L36.903 24.2025ZM39.9082 24.0561C39.8623 24.6922 39.6947 25.5056 39.4876 26.098C39.425 26.277 39.3708 26.4269 39.3674 26.4311C39.3568 26.4438 37.1396 26.8302 37.0774 26.8302C37.0232 26.8302 37.0243 26.8124 37.096 26.5292C37.2561 25.8971 37.4277 24.719 37.4291 24.2432C37.4294 24.1179 37.4386 23.9605 37.4495 23.8934L37.4696 23.7714H38.6992H39.9288L39.9082 24.0561ZM26.6274 27.2373C27.2083 27.3381 27.6926 27.4305 27.7036 27.4427C27.7147 27.4548 27.749 27.5453 27.78 27.6437C27.9461 28.1717 28.2518 28.81 28.5981 29.3521C28.9012 29.8268 29.1117 30.0914 29.5358 30.5317C29.7297 30.733 29.8812 30.8978 29.8723 30.8978C29.8198 30.8978 29.1548 30.6143 28.8768 30.4733C27.7192 29.8859 26.7212 29.0055 25.9644 27.9041C25.8251 27.7013 25.4592 27.0743 25.4592 27.0384C25.4592 27.0289 25.4844 27.0285 25.5152 27.0376C25.546 27.0467 26.0465 27.1366 26.6274 27.2373ZM39.0934 27.0406C39.0934 27.0489 39.0122 27.199 38.9135 27.3741C38.5796 27.9649 38.2516 28.4024 37.7513 28.9241C37.1003 29.6032 36.4832 30.0636 35.6756 30.4733C35.3976 30.6143 34.7329 30.8978 34.6801 30.8978C34.6715 30.8978 34.823 30.733 35.0169 30.5317C35.4409 30.0914 35.6512 29.8268 35.9545 29.3521C36.3065 28.8011 36.6499 28.0757 36.7922 27.5834C36.8146 27.5055 36.8484 27.4358 36.8671 27.4285C36.8918 27.419 38.8911 27.0564 39.0693 27.0292C39.0825 27.0271 39.0934 27.0323 39.0934 27.0406ZM28.954 27.6421C29.736 27.7743 30.5413 27.8634 31.3128 27.9031C31.6717 27.9215 31.9781 27.9366 31.9933 27.9366C32.0085 27.9366 32.0171 28.685 32.0125 29.6044L32.0042 31.2719L31.8771 31.2607C31.6663 31.2421 31.2201 31.0982 30.9407 30.9583C29.9394 30.4572 29.0489 29.3716 28.4527 27.9246C28.3729 27.731 28.3076 27.5667 28.3076 27.5594C28.3076 27.5357 28.3796 27.5449 28.954 27.6421ZM36.2448 27.5594C36.2448 27.6093 35.9229 28.3379 35.7766 28.6191C35.1942 29.738 34.3708 30.6152 33.546 30.9953C33.2967 31.1102 32.8546 31.245 32.6753 31.2607L32.5482 31.2719L32.5401 29.6044C32.5335 28.2811 32.5401 27.9365 32.572 27.9363C33.2961 27.9307 34.728 27.7913 35.5568 27.6456C36.0644 27.5564 36.2448 27.5338 36.2448 27.5594Z" stroke="#7EFFD4"/>
  </g>
  <path d="M180.457 14.0467C181.883 14.0467 183.039 12.8916 183.039 11.4667C183.039 10.0418 181.883 8.88672 180.457 8.88672C179.031 8.88672 177.875 10.0418 177.875 11.4667C177.875 12.8916 179.031 14.0467 180.457 14.0467Z" fill="#7EFFD4"/>
</svg>